<?xml version="1.0" encoding="UTF-8" standalone="no"?>
<!-- Created with Inkscape (http://www.inkscape.org/) -->

<svg
   xmlns:dc="http://purl.org/dc/elements/1.1/"
   xmlns:cc="http://creativecommons.org/ns#"
   xmlns:rdf="http://www.w3.org/1999/02/22-rdf-syntax-ns#"
   xmlns:svg="http://www.w3.org/2000/svg"
   xmlns="http://www.w3.org/2000/svg"
   xmlns:sodipodi="http://sodipodi.sourceforge.net/DTD/sodipodi-0.dtd"
   xmlns:inkscape="http://www.inkscape.org/namespaces/inkscape"
   width="940"
   height="470"
   viewBox="0 0 940.00002 470.00002"
   id="svg2"
   version="1.1"
   inkscape:version="0.91 r13725"
   sodipodi:docname="elements.svg"
   inkscape:export-filename="/Users/tomek/Dropbox/tkwork/codes/parmes/solfec/figures/elements.png"
   inkscape:export-xdpi="90"
   inkscape:export-ydpi="90">
  <defs
     id="defs4">
    <clipPath
       id="clipPath3379"
       clipPathUnits="userSpaceOnUse">
      <path
         style="clip-rule:evenodd"
         inkscape:connector-curvature="0"
         id="path3381"
         d="M 0,3990 0,0 l 3500,0 0,3990 -3500,0 z m 2116.62,-3248.844 0,-372.902 151.17,0 0,372.902 0,0 -75.59,-302.351 -75.58,302.351 z" />
    </clipPath>
    <clipPath
       id="clipPath3393"
       clipPathUnits="userSpaceOnUse">
      <path
         style="clip-rule:evenodd"
         inkscape:connector-curvature="0"
         id="path3395"
         d="M 0,3990 0,0 l 3500,0 0,3990 -3500,0 z m 1322.94,-930.81 -318.73,194.64 -78.733,-129.13 318.733,-194.64 0,0 -218.58,221.72 297.31,-92.59 z" />
    </clipPath>
    <clipPath
       id="clipPath3413"
       clipPathUnits="userSpaceOnUse">
      <path
         style="clip-rule:evenodd"
         inkscape:connector-curvature="0"
         id="path3415"
         d="M 0,3990 0,0 l 3500,0 0,3990 -3500,0 z m 1246.73,-1674.09 -372.277,-20.79 8.188,-150.55 372.269,20.16 0,0 -305.5,58.58 297.32,92.6 z" />
    </clipPath>
    <clipPath
       id="clipPath3427"
       clipPathUnits="userSpaceOnUse">
      <path
         style="clip-rule:evenodd"
         inkscape:connector-curvature="0"
         id="path3429"
         d="M 0,3990 0,0 l 3500,0 0,3990 -3500,0 z m 3103.04,-1844.17 325.03,183.3 -74.33,131.65 -325.03,-183.3 0,0 300.47,82.52 -226.14,-214.17 z" />
    </clipPath>
    <clipPath
       id="clipPath3541"
       clipPathUnits="userSpaceOnUse">
      <path
         style="clip-rule:evenodd"
         inkscape:connector-curvature="0"
         id="path3543"
         d="M 0,4080 0,0 l 4480,0 0,4080 -4480,0 z m 1732.16,-3697.867 38.43,-371.6408 149.91,15.75 -37.79,371.0118 0,0 -44.09,-308.6524 -106.46,293.5314 z" />
    </clipPath>
    <clipPath
       id="clipPath3555"
       clipPathUnits="userSpaceOnUse">
      <path
         style="clip-rule:evenodd"
         inkscape:connector-curvature="0"
         id="path3557"
         d="M 0,4080 0,0 l 4480,0 0,4080 -4480,0 z m 2796.7,-1242.52 214.79,304.88 -123.46,86.92 -214.8,-304.24 0,0 236.22,202.83 -112.75,-290.39 z" />
    </clipPath>
    <clipPath
       id="clipPath3569"
       clipPathUnits="userSpaceOnUse">
      <path
         style="clip-rule:evenodd"
         inkscape:connector-curvature="0"
         id="path3571"
         d="M 0,4080 0,0 l 4480,0 0,4080 -4480,0 z m 3580.29,-1750.21 303.61,215.42 -87.55,123.46 -303.62,-215.42 0,0 290.39,112.75 -202.83,-236.21 z" />
    </clipPath>
    <clipPath
       id="clipPath3583"
       clipPathUnits="userSpaceOnUse">
      <path
         inkscape:connector-curvature="0"
         id="path3585"
         d="M 0,4080 0,0 l 4480,0 0,4080 -4480,0 z" />
    </clipPath>
    <clipPath
       id="clipPath3589"
       clipPathUnits="userSpaceOnUse">
      <path
         style="clip-rule:evenodd"
         inkscape:connector-curvature="0"
         id="path3591"
         d="M 0,4080 0,0 l 4480,0 0,4080 -4480,0 z m 361.5,-2091.62 -361.5625,-90.7 36.5352,-146.77 361.5623,90.7 0,0 -311.1717,0 274.6367,146.77 z" />
    </clipPath>
    <clipPath
       id="clipPath3603"
       clipPathUnits="userSpaceOnUse">
      <path
         style="clip-rule:evenodd"
         inkscape:connector-curvature="0"
         id="path3605"
         d="M 0,4080 0,0 l 4480,0 0,4080 -4480,0 z m 585.117,-1141.73 -338.887,154.95 -62.992,-137.31 338.887,-155.59 0,0 -243.141,194.64 306.133,-56.69 z" />
    </clipPath>
    <clipPath
       id="clipPath3740"
       clipPathUnits="userSpaceOnUse">
      <path
         style="clip-rule:evenodd"
         inkscape:connector-curvature="0"
         id="path3742"
         d="M 0,5360 0,0 l 4340,0 0,5360 -4340,0 z m 2288.45,-394.8 0,372.9 -151.18,0 0,-372.9 0,0 75.59,302.35 75.59,-302.35 z" />
    </clipPath>
    <clipPath
       id="clipPath3754"
       clipPathUnits="userSpaceOnUse">
      <path
         inkscape:connector-curvature="0"
         id="path3756"
         d="M 0,5360 0,0 l 4340,0 0,5360 -4340,0 z" />
    </clipPath>
    <clipPath
       id="clipPath3760"
       clipPathUnits="userSpaceOnUse">
      <path
         style="clip-rule:evenodd"
         inkscape:connector-curvature="0"
         id="path3762"
         d="M 0,5360 0,0 l 4340,0 0,5360 -4340,0 z m 3938.79,-3130.45 348.96,-132.91 53.54,141.09 -348.33,133.54 0,0 255.74,-178.89 -309.91,37.17 z" />
    </clipPath>
    <clipPath
       id="clipPath3774"
       clipPathUnits="userSpaceOnUse">
      <path
         style="clip-rule:evenodd"
         inkscape:connector-curvature="0"
         id="path3776"
         d="M 0,5360 0,0 l 4340,0 0,5360 -4340,0 z m 1740.44,-4968.5 0,-372.9023 151.17,0 0,372.9023 0,0 L 1816.02,89.1445 1740.44,391.5 Z" />
    </clipPath>
    <clipPath
       id="clipPath3788"
       clipPathUnits="userSpaceOnUse">
      <path
         style="clip-rule:evenodd"
         inkscape:connector-curvature="0"
         id="path3790"
         d="M 0,5360 0,0 4340,0 4340,5360 0,5360 Z M 380.484,2660.4 9.47266,2618.82 26.4805,2468.91 l 371.0075,40.94 0,0 -308.6482,41.58 291.6442,108.97 z" />
    </clipPath>
    <clipPath
       id="clipPath3802"
       clipPathUnits="userSpaceOnUse">
      <path
         style="clip-rule:evenodd"
         inkscape:connector-curvature="0"
         id="path3804"
         d="M 0,5360 0,0 l 4340,0 0,5360 -4340,0 z m 1870.82,-2081.04 -103.93,357.78 -145.5,-42.2 104.56,-357.78 0,0 -11.97,311.17 156.84,-268.97 z" />
    </clipPath>
    <clipPath
       id="clipPath3928"
       clipPathUnits="userSpaceOnUse">
      <path
         style="clip-rule:evenodd"
         inkscape:connector-curvature="0"
         id="path3930"
         d="M 0,4530 0,0 l 4830,0 0,4530 -4830,0 z m 4324.24,-1271.59 350.85,127.24 -51.65,141.73 -350.85,-127.24 0,0 310.54,32.12 -258.89,-173.85 z" />
    </clipPath>
    <clipPath
       id="clipPath3942"
       clipPathUnits="userSpaceOnUse">
      <path
         style="clip-rule:evenodd"
         inkscape:connector-curvature="0"
         id="path3944"
         d="M 0,4530 0,0 4830,0 4830,4530 0,4530 Z M 571.293,2944.72 216.66,3059.36 170.047,2915.74 524.68,2800.47 l 0,0 -263.93,165.03 310.543,-20.78 z" />
    </clipPath>
    <clipPath
       id="clipPath3956"
       clipPathUnits="userSpaceOnUse">
      <path
         style="clip-rule:evenodd"
         inkscape:connector-curvature="0"
         id="path3958"
         d="M 0,4530 0,0 4830,0 4830,4530 0,4530 Z M 1768.73,398.66 1677.4,37.0977 1824.16,0.566406 1914.87,362.129 l 0,0 -146.14,-275.2696 0,311.8006 z" />
    </clipPath>
    <clipPath
       id="clipPath3982"
       clipPathUnits="userSpaceOnUse">
      <path
         style="clip-rule:evenodd"
         inkscape:connector-curvature="0"
         id="path3984"
         d="M 0,4530 0,0 l 4830,0 0,4530 -4830,0 z m 2931.53,-399.81 81.88,364.08 -147.39,33.39 -81.89,-364.09 0,0 140.47,277.79 6.93,-311.17 z" />
    </clipPath>
    <clipPath
       id="clipPath3996"
       clipPathUnits="userSpaceOnUse">
      <path
         style="clip-rule:evenodd"
         inkscape:connector-curvature="0"
         id="path3998"
         d="M 0,4530 0,0 l 4830,0 0,4530 -4830,0 z m 561.215,-3230.58 -338.887,-156.85 63.621,-137.32 338.254,156.85 0,0 -305.5,-58.58 242.512,195.9 z" />
    </clipPath>
    <clipPath
       id="clipPath4010"
       clipPathUnits="userSpaceOnUse">
      <path
         style="clip-rule:evenodd"
         inkscape:connector-curvature="0"
         id="path4012"
         d="M 0,4530 0,0 l 4830,0 0,4530 -4830,0 z m 4187.55,-2918.15 347.7,-134.8 54.8,141.1 -348.33,134.8 0,0 255.11,-180.15 -309.28,39.05 z" />
    </clipPath>
  </defs>
  <sodipodi:namedview
     id="base"
     pagecolor="#ffffff"
     bordercolor="#666666"
     borderopacity="1.0"
     inkscape:pageopacity="0.0"
     inkscape:pageshadow="2"
     inkscape:zoom="1.0148936"
     inkscape:cx="481.33124"
     inkscape:cy="235"
     inkscape:document-units="px"
     inkscape:current-layer="g3371"
     showgrid="false"
     units="px"
     inkscape:window-width="1440"
     inkscape:window-height="851"
     inkscape:window-x="0"
     inkscape:window-y="1"
     inkscape:window-maximized="1" />
  <metadata
     id="metadata7">
    <rdf:RDF>
      <cc:Work
         rdf:about="">
        <dc:format>image/svg+xml</dc:format>
        <dc:type
           rdf:resource="http://purl.org/dc/dcmitype/StillImage" />
        <dc:title></dc:title>
      </cc:Work>
    </rdf:RDF>
  </metadata>
  <g
     inkscape:label="Layer 1"
     inkscape:groupmode="layer"
     id="layer1"
     transform="translate(0,-582.36216)">
    <g
       transform="matrix(1.25,0,0,-1.25,-2.41385,712.0211)"
       inkscape:label="ink_ext_XXXXXX"
       id="g3371">
      <g
         transform="matrix(0.045,0,0,0.045,17.853882,-118.16306)"
         id="g3373">
        <g
           id="g3375">
          <g
             clip-path="url(#clipPath3379)"
             id="g3377">
            <path
               inkscape:connector-curvature="0"
               id="path3383"
               style="fill:none;stroke:#000000;stroke-width:28.34550095;stroke-linecap:butt;stroke-linejoin:miter;stroke-miterlimit:10;stroke-dasharray:none;stroke-opacity:1"
               d="m 2192.2,1199.72 0,-822.017" />
          </g>
        </g>
        <path
           inkscape:connector-curvature="0"
           id="path3385"
           style="fill:#ffffff;fill-opacity:1;fill-rule:evenodd;stroke:none"
           d="m 2116.62,741.156 75.58,-302.351 75.59,302.351 -151.17,0" />
        <path
           inkscape:connector-curvature="0"
           id="path3387"
           style="fill:none;stroke:#000000;stroke-width:28.34550095;stroke-linecap:butt;stroke-linejoin:miter;stroke-miterlimit:10;stroke-dasharray:none;stroke-opacity:1"
           d="m 2116.62,741.156 75.58,-302.351 75.59,302.351 -151.17,0 z" />
        <g
           id="g3389">
          <g
             clip-path="url(#clipPath3393)"
             id="g3391">
            <path
               inkscape:connector-curvature="0"
               id="path3397"
               style="fill:none;stroke:#000000;stroke-width:28.34550095;stroke-linecap:butt;stroke-linejoin:miter;stroke-miterlimit:10;stroke-dasharray:none;stroke-opacity:1"
               d="m 1483.57,2872.11 -510.222,311.8" />
          </g>
        </g>
        <path
           inkscape:connector-curvature="0"
           id="path3399"
           style="fill:#ffffff;fill-opacity:1;fill-rule:evenodd;stroke:none"
           d="m 1322.94,3059.19 -297.31,92.59 218.58,-221.72 78.73,129.13" />
        <path
           inkscape:connector-curvature="0"
           id="path3401"
           style="fill:none;stroke:#000000;stroke-width:28.34550095;stroke-linecap:butt;stroke-linejoin:miter;stroke-miterlimit:10;stroke-dasharray:none;stroke-opacity:1"
           d="m 1322.94,3059.19 -297.31,92.59 218.58,-221.72 78.73,129.13 z" />
        <path
           inkscape:connector-curvature="0"
           id="path3403"
           style="fill:none;stroke:#000000;stroke-width:18.89699936;stroke-linecap:butt;stroke-linejoin:miter;stroke-miterlimit:10;stroke-dasharray:none;stroke-opacity:1"
           d="M 208.02,1454.83 2985.88,1936.71 3212.64,207.629 236.363,1454.83" />
        <path
           inkscape:connector-curvature="0"
           id="path3405"
           style="fill:none;stroke:#000000;stroke-width:18.89699936;stroke-linecap:butt;stroke-linejoin:miter;stroke-miterlimit:10;stroke-dasharray:none;stroke-opacity:1"
           d="M 236.363,1454.83 1681.98,3750.82 2985.88,1936.71" />
        <path
           inkscape:connector-curvature="0"
           id="path3407"
           style="fill:none;stroke:#000000;stroke-width:18.89699936;stroke-linecap:butt;stroke-linejoin:miter;stroke-miterlimit:10;stroke-dasharray:none;stroke-opacity:1"
           d="M 1681.98,3750.82 3212.64,207.629" />
        <g
           id="g3409">
          <g
             clip-path="url(#clipPath3413)"
             id="g3411">
            <path
               inkscape:connector-curvature="0"
               id="path3417"
               style="fill:none;stroke:#000000;stroke-width:28.34550095;stroke-linecap:butt;stroke-linejoin:miter;stroke-miterlimit:10;stroke-dasharray:none;stroke-opacity:1"
               d="M 1398.53,2248.51 888.313,2220.16" />
          </g>
        </g>
        <path
           inkscape:connector-curvature="0"
           id="path3419"
           style="fill:#ffffff;fill-opacity:1;fill-rule:evenodd;stroke:none"
           d="m 1246.73,2315.91 -297.32,-92.6 305.5,-58.58 -8.18,151.18" />
        <path
           inkscape:connector-curvature="0"
           id="path3421"
           style="fill:none;stroke:#000000;stroke-width:28.34550095;stroke-linecap:butt;stroke-linejoin:miter;stroke-miterlimit:10;stroke-dasharray:none;stroke-opacity:1"
           d="m 1246.73,2315.91 -297.32,-92.6 305.5,-58.58 -8.18,151.18 z" />
        <g
           id="g3423">
          <g
             clip-path="url(#clipPath3427)"
             id="g3425">
            <path
               inkscape:connector-curvature="0"
               id="path3431"
               style="fill:none;stroke:#000000;stroke-width:28.34550095;stroke-linecap:butt;stroke-linejoin:miter;stroke-miterlimit:10;stroke-dasharray:none;stroke-opacity:1"
               d="m 2730.77,2021.74 651.94,368.49" />
          </g>
        </g>
        <path
           inkscape:connector-curvature="0"
           id="path3433"
           style="fill:#ffffff;fill-opacity:1;fill-rule:evenodd;stroke:none"
           d="m 3103.04,2145.83 226.14,214.17 -300.47,-82.52 74.33,-131.65" />
        <path
           inkscape:connector-curvature="0"
           id="path3435"
           style="fill:none;stroke:#000000;stroke-width:28.34550095;stroke-linecap:butt;stroke-linejoin:miter;stroke-miterlimit:10;stroke-dasharray:none;stroke-opacity:1"
           d="m 3103.04,2145.83 226.14,214.17 -300.47,-82.52 74.33,-131.65 z" />
        <g
           transform="scale(10,10)"
           id="g3437">
          <text
             id="text3439"
             style="font-variant:normal;font-weight:normal;font-size:39.99860001px;font-family:Times;-inkscape-font-specification:Times-Roman;writing-mode:lr-tb;fill:#000000;fill-opacity:1;fill-rule:nonzero;stroke:none"
             transform="matrix(1,0,0,-1,0.960156,134.145)">
            <tspan
               id="tspan3441"
               y="0"
               x="0">1</tspan>
            <tspan
               id="tspan3443"
               y="-45.352699"
               x="306.13101">3</tspan>
            <tspan
               id="tspan3445"
               y="133.2243"
               x="325.97281">2</tspan>
            <tspan
               id="tspan3447"
               sodipodi:role="line"
               y="11.3383"
               x="204.08681 217.40633">f1</tspan>
            <tspan
               id="tspan3449"
               sodipodi:role="line"
               y="-68.029297"
               x="240.936 254.25554">f3</tspan>
            <tspan
               id="tspan3451"
               sodipodi:role="line"
               y="-76.532822"
               x="141.72659 155.04613">f2</tspan>
            <tspan
               id="tspan3453"
               sodipodi:role="line"
               y="-133.22382"
               x="147.39574 160.71527">f4</tspan>
            <tspan
               id="tspan3455"
               y="-235.26782"
               x="170.07234">4</tspan>
          </text>
        </g>
      </g>
      <g
         transform="matrix(0.45,0,0,0.45,177.45712,-260.18649)"
         inkscape:label="ink_ext_XXXXXX"
         id="g3527">
        <g
           transform="scale(0.1,0.1)"
           id="g3529">
          <path
             inkscape:connector-curvature="0"
             id="path3531"
             style="fill:none;stroke:#000000;stroke-width:18.89699936;stroke-linecap:butt;stroke-linejoin:miter;stroke-miterlimit:10;stroke-dasharray:none;stroke-opacity:1"
             d="M 1958.3,2351.83 200.875,1331.39 2695.28,254.266 4225.94,1898.3 1958.3,2351.83 Z" />
          <path
             inkscape:connector-curvature="0"
             id="path3533"
             style="fill:none;stroke:#000000;stroke-width:18.89699936;stroke-linecap:butt;stroke-linejoin:miter;stroke-miterlimit:10;stroke-dasharray:none;stroke-opacity:1"
             d="M 200.875,1331.39 1051.24,3797.45 1958.3,2351.83" />
          <path
             inkscape:connector-curvature="0"
             id="path3535"
             style="fill:none;stroke:#000000;stroke-width:18.89699936;stroke-linecap:butt;stroke-linejoin:miter;stroke-miterlimit:10;stroke-dasharray:none;stroke-opacity:1"
             d="M 1051.24,3769.11 4254.28,1869.96" />
          <g
             id="g3537">
            <g
               clip-path="url(#clipPath3541)"
               id="g3539">
              <path
                 inkscape:connector-curvature="0"
                 id="path3545"
                 style="fill:none;stroke:#000000;stroke-width:28.34550095;stroke-linecap:butt;stroke-linejoin:miter;stroke-miterlimit:10;stroke-dasharray:none;stroke-opacity:1"
                 d="M 1731.54,1132.98 1844.91,27.5" />
            </g>
          </g>
          <path
             inkscape:connector-curvature="0"
             id="path3547"
             style="fill:#ffffff;fill-opacity:1;fill-rule:evenodd;stroke:none"
             d="M 1732.16,382.133 1838.62,88.6016 1882.71,397.254 1732.16,382.133" />
          <path
             inkscape:connector-curvature="0"
             id="path3549"
             style="fill:none;stroke:#000000;stroke-width:28.34550095;stroke-linecap:butt;stroke-linejoin:miter;stroke-miterlimit:10;stroke-dasharray:none;stroke-opacity:1"
             d="M 1732.16,382.133 1838.62,88.6016 1882.71,397.254 1732.16,382.133 Z" />
          <g
             id="g3551">
            <g
               clip-path="url(#clipPath3555)"
               id="g3553">
              <path
                 inkscape:connector-curvature="0"
                 id="path3559"
                 style="fill:none;stroke:#000000;stroke-width:28.34550095;stroke-linecap:butt;stroke-linejoin:miter;stroke-miterlimit:10;stroke-dasharray:none;stroke-opacity:1"
                 d="m 2604.57,2695.76 340.15,481.87" />
            </g>
          </g>
          <path
             inkscape:connector-curvature="0"
             id="path3561"
             style="fill:#ffffff;fill-opacity:1;fill-rule:evenodd;stroke:none"
             d="m 2796.7,2837.48 112.75,290.39 -236.22,-202.83 123.47,-87.56" />
          <path
             inkscape:connector-curvature="0"
             id="path3563"
             style="fill:none;stroke:#000000;stroke-width:28.34550095;stroke-linecap:butt;stroke-linejoin:miter;stroke-miterlimit:10;stroke-dasharray:none;stroke-opacity:1"
             d="m 2796.7,2837.48 112.75,290.39 -236.22,-202.83 123.47,-87.56 z" />
          <g
             id="g3565">
            <g
               clip-path="url(#clipPath3569)"
               id="g3567">
              <path
                 inkscape:connector-curvature="0"
                 id="path3573"
                 style="fill:none;stroke:#000000;stroke-width:28.34550095;stroke-linecap:butt;stroke-linejoin:miter;stroke-miterlimit:10;stroke-dasharray:none;stroke-opacity:1"
                 d="m 2954.17,1977.67 878.71,623.6" />
            </g>
          </g>
          <path
             inkscape:connector-curvature="0"
             id="path3575"
             style="fill:#ffffff;fill-opacity:1;fill-rule:evenodd;stroke:none"
             d="m 3580.29,2329.79 202.83,236.21 -290.39,-112.75 87.56,-123.46" />
          <path
             inkscape:connector-curvature="0"
             id="path3577"
             style="fill:none;stroke:#000000;stroke-width:28.34550095;stroke-linecap:butt;stroke-linejoin:miter;stroke-miterlimit:10;stroke-dasharray:none;stroke-opacity:1"
             d="m 3580.29,2329.79 202.83,236.21 -290.39,-112.75 87.56,-123.46 z" />
          <g
             id="g3579">
            <g
               clip-path="url(#clipPath3583)"
               id="g3581">
              <g
                 clip-path="url(#clipPath3589)"
                 id="g3587">
                <path
                   inkscape:connector-curvature="0"
                   id="path3593"
                   style="fill:none;stroke:#000000;stroke-width:28.34550095;stroke-linecap:butt;stroke-linejoin:miter;stroke-miterlimit:10;stroke-dasharray:none;stroke-opacity:1"
                   d="M 1048.09,2081.61 27.6523,1826.5" />
              </g>
            </g>
          </g>
          <path
             inkscape:connector-curvature="0"
             id="path3595"
             style="fill:#ffffff;fill-opacity:1;fill-rule:evenodd;stroke:none"
             d="m 361.5,1988.38 -274.6367,-146.77 311.1717,0 -36.535,146.77" />
          <path
             inkscape:connector-curvature="0"
             id="path3597"
             style="fill:none;stroke:#000000;stroke-width:28.34550095;stroke-linecap:butt;stroke-linejoin:miter;stroke-miterlimit:10;stroke-dasharray:none;stroke-opacity:1"
             d="m 361.5,1988.38 -274.6367,-146.77 311.1717,0 -36.535,146.77 z" />
          <g
             id="g3599">
            <g
               clip-path="url(#clipPath3603)"
               id="g3601">
              <path
                 inkscape:connector-curvature="0"
                 id="path3607"
                 style="fill:none;stroke:#000000;stroke-width:28.34550095;stroke-linecap:butt;stroke-linejoin:miter;stroke-miterlimit:10;stroke-dasharray:none;stroke-opacity:1"
                 d="m 903.844,2708.36 -680.293,311.8" />
            </g>
          </g>
          <path
             inkscape:connector-curvature="0"
             id="path3609"
             style="fill:#ffffff;fill-opacity:1;fill-rule:evenodd;stroke:none"
             d="m 585.117,2938.27 -306.133,56.69 243.141,-194.64 62.992,137.95" />
          <path
             inkscape:connector-curvature="0"
             id="path3611"
             style="fill:none;stroke:#000000;stroke-width:28.34550095;stroke-linecap:butt;stroke-linejoin:miter;stroke-miterlimit:10;stroke-dasharray:none;stroke-opacity:1"
             d="m 585.117,2938.27 -306.133,56.69 243.141,-194.64 62.992,137.95 z" />
          <path
             inkscape:connector-curvature="0"
             id="path3613"
             style="fill:none;stroke:#000000;stroke-width:18.89699936;stroke-linecap:butt;stroke-linejoin:miter;stroke-miterlimit:10;stroke-dasharray:none;stroke-opacity:1"
             d="M 1051.24,3797.45 2695.28,254.266" />
          <g
             transform="scale(10,10)"
             id="g3615">
            <text
               id="text3617"
               style="font-variant:normal;font-weight:normal;font-size:39.99860001px;font-family:Times;-inkscape-font-specification:Times-Roman;writing-mode:lr-tb;fill:#000000;fill-opacity:1;fill-rule:nonzero;stroke:none"
               transform="matrix(1,0,0,-1,3.08047,107.629)">
              <tspan
                 id="tspan3619"
                 y="0"
                 x="0">1</tspan>
              <tspan
                 id="tspan3621"
                 y="-269.28201"
                 x="107.713">5</tspan>
              <tspan
                 id="tspan3623"
                 y="104.879"
                 x="274.95099">2</tspan>
              <tspan
                 id="tspan3625"
                 y="-130.38901"
                 x="192.74899">4</tspan>
              <tspan
                 id="tspan3627"
                 y="-65.194504"
                 x="422.34698">3</tspan>
              <tspan
                 id="tspan3629"
                 sodipodi:role="line"
                 y="-11.3382"
                 x="153.065 166.38454">f1</tspan>
              <tspan
                 id="tspan3631"
                 sodipodi:role="line"
                 y="-130.38921"
                 x="235.267 248.58653">f4</tspan>
              <tspan
                 id="tspan3633"
                 sodipodi:role="line"
                 y="-59.525501"
                 x="260.77789 274.09744">f3</tspan>
              <tspan
                 id="tspan3635"
                 sodipodi:role="line"
                 y="-144.56219"
                 x="90.704903 104.02444">f5</tspan>
              <tspan
                 id="tspan3637"
                 sodipodi:role="line"
                 y="-96.374702"
                 x="102.0432 115.36273">f2</tspan>
            </text>
          </g>
        </g>
      </g>
      <g
         transform="matrix(0.45,0,0,0.45,349.08924,-148.66215)"
         inkscape:label="ink_ext_XXXXXX"
         id="g3722">
        <g
           transform="scale(0.1,0.1)"
           id="g3724">
          <path
             inkscape:connector-curvature="0"
             id="path3726"
             style="fill:none;stroke:#000000;stroke-width:18.89699936;stroke-linecap:butt;stroke-linejoin:miter;stroke-miterlimit:10;stroke-dasharray:none;stroke-opacity:1"
             d="M 398.75,1587.05 2014.45,368.191 3545.1,1672.09 427.094,1587.05" />
          <path
             inkscape:connector-curvature="0"
             id="path3728"
             style="fill:none;stroke:#000000;stroke-width:18.89699936;stroke-linecap:butt;stroke-linejoin:miter;stroke-miterlimit:10;stroke-dasharray:none;stroke-opacity:1"
             d="M 641.891,4688.68 2257.59,3469.82 3788.24,4773.71 670.238,4688.68" />
          <path
             inkscape:connector-curvature="0"
             id="path3730"
             style="fill:none;stroke:#000000;stroke-width:18.89699936;stroke-linecap:butt;stroke-linejoin:miter;stroke-miterlimit:10;stroke-dasharray:none;stroke-opacity:1"
             d="M 653.859,4676.71 398.75,1558.7" />
          <path
             inkscape:connector-curvature="0"
             id="path3732"
             style="fill:none;stroke:#000000;stroke-width:18.89699936;stroke-linecap:butt;stroke-linejoin:miter;stroke-miterlimit:10;stroke-dasharray:none;stroke-opacity:1"
             d="M 2241.21,3457.85 2014.45,368.191" />
          <path
             inkscape:connector-curvature="0"
             id="path3734"
             style="fill:none;stroke:#000000;stroke-width:18.89699936;stroke-linecap:butt;stroke-linejoin:miter;stroke-miterlimit:10;stroke-dasharray:none;stroke-opacity:1"
             d="M 3800.21,4761.75 3545.1,1672.09" />
          <g
             id="g3736">
            <g
               clip-path="url(#clipPath3740)"
               id="g3738">
              <path
                 inkscape:connector-curvature="0"
                 id="path3744"
                 style="fill:none;stroke:#000000;stroke-width:28.34550095;stroke-linecap:butt;stroke-linejoin:miter;stroke-miterlimit:10;stroke-dasharray:none;stroke-opacity:1"
                 d="m 2212.86,4336.56 0,992.1" />
            </g>
          </g>
          <path
             inkscape:connector-curvature="0"
             id="path3746"
             style="fill:#ffffff;fill-opacity:1;fill-rule:evenodd;stroke:none"
             d="m 2288.45,4965.2 -75.59,302.35 -75.59,-302.35 151.18,0" />
          <path
             inkscape:connector-curvature="0"
             id="path3748"
             style="fill:none;stroke:#000000;stroke-width:28.34550095;stroke-linecap:butt;stroke-linejoin:miter;stroke-miterlimit:10;stroke-dasharray:none;stroke-opacity:1"
             d="m 2288.45,4965.2 -75.59,302.35 -75.59,-302.35 151.18,0 z" />
          <g
             id="g3750">
            <g
               clip-path="url(#clipPath3754)"
               id="g3752">
              <g
                 clip-path="url(#clipPath3760)"
                 id="g3758">
                <path
                   inkscape:connector-curvature="0"
                   id="path3764"
                   style="fill:none;stroke:#000000;stroke-width:28.34550095;stroke-linecap:butt;stroke-linejoin:miter;stroke-miterlimit:10;stroke-dasharray:none;stroke-opacity:1"
                   d="M 3115.51,2623.86 4306.02,2170.34" />
              </g>
            </g>
          </g>
          <path
             inkscape:connector-curvature="0"
             id="path3766"
             style="fill:#ffffff;fill-opacity:1;fill-rule:evenodd;stroke:none"
             d="m 3938.79,2229.55 309.91,-37.17 -255.74,178.89 -54.17,-141.72" />
          <path
             inkscape:connector-curvature="0"
             id="path3768"
             style="fill:none;stroke:#000000;stroke-width:28.34550095;stroke-linecap:butt;stroke-linejoin:miter;stroke-miterlimit:10;stroke-dasharray:none;stroke-opacity:1"
             d="m 3938.79,2229.55 309.91,-37.17 -255.74,178.89 -54.17,-141.72 z" />
          <g
             id="g3770">
            <g
               clip-path="url(#clipPath3774)"
               id="g3772">
              <path
                 inkscape:connector-curvature="0"
                 id="path3778"
                 style="fill:none;stroke:#000000;stroke-width:28.34550095;stroke-linecap:butt;stroke-linejoin:miter;stroke-miterlimit:10;stroke-dasharray:none;stroke-opacity:1"
                 d="m 1816.02,991.793 0,-963.7461" />
            </g>
          </g>
          <path
             inkscape:connector-curvature="0"
             id="path3780"
             style="fill:#ffffff;fill-opacity:1;fill-rule:evenodd;stroke:none"
             d="m 1740.44,391.5 75.58,-302.3555 75.59,302.3555 -151.17,0" />
          <path
             inkscape:connector-curvature="0"
             id="path3782"
             style="fill:none;stroke:#000000;stroke-width:28.34550095;stroke-linecap:butt;stroke-linejoin:miter;stroke-miterlimit:10;stroke-dasharray:none;stroke-opacity:1"
             d="m 1740.44,391.5 75.58,-302.3555 75.59,302.3555 -151.17,0 z" />
          <g
             id="g3784">
            <g
               clip-path="url(#clipPath3788)"
               id="g3786">
              <path
                 inkscape:connector-curvature="0"
                 id="path3792"
                 style="fill:none;stroke:#000000;stroke-width:28.34550095;stroke-linecap:butt;stroke-linejoin:miter;stroke-miterlimit:10;stroke-dasharray:none;stroke-opacity:1"
                 d="M 1048.18,2657.88 27.7383,2544.5" />
            </g>
          </g>
          <path
             inkscape:connector-curvature="0"
             id="path3794"
             style="fill:#ffffff;fill-opacity:1;fill-rule:evenodd;stroke:none"
             d="M 380.484,2660.4 88.8398,2551.43 397.488,2509.85 380.484,2660.4" />
          <path
             inkscape:connector-curvature="0"
             id="path3796"
             style="fill:none;stroke:#000000;stroke-width:28.34550095;stroke-linecap:butt;stroke-linejoin:miter;stroke-miterlimit:10;stroke-dasharray:none;stroke-opacity:1"
             d="M 380.484,2660.4 88.8398,2551.43 397.488,2509.85 380.484,2660.4 Z" />
          <g
             id="g3798">
            <g
               clip-path="url(#clipPath3802)"
               id="g3800">
              <path
                 inkscape:connector-curvature="0"
                 id="path3806"
                 style="fill:none;stroke:#000000;stroke-width:28.34550095;stroke-linecap:butt;stroke-linejoin:miter;stroke-miterlimit:10;stroke-dasharray:none;stroke-opacity:1"
                 d="m 1895.39,2926.21 -198.42,680.3" />
            </g>
          </g>
          <path
             inkscape:connector-curvature="0"
             id="path3808"
             style="fill:#ffffff;fill-opacity:1;fill-rule:evenodd;stroke:none"
             d="m 1870.82,3278.96 -156.84,268.97 11.97,-311.17 144.87,42.2" />
          <path
             inkscape:connector-curvature="0"
             id="path3810"
             style="fill:none;stroke:#000000;stroke-width:28.34550095;stroke-linecap:butt;stroke-linejoin:miter;stroke-miterlimit:10;stroke-dasharray:none;stroke-opacity:1"
             d="m 1870.82,3278.96 -156.84,268.97 11.97,-311.17 144.87,42.2 z" />
          <g
             transform="scale(10,10)"
             id="g3812">
            <text
               id="text3814"
               style="font-variant:normal;font-weight:normal;font-size:39.99860001px;font-family:Times;-inkscape-font-specification:Times-Roman;writing-mode:lr-tb;fill:#000000;fill-opacity:1;fill-rule:nonzero;stroke:none"
               transform="matrix(1,0,0,-1,25.7023,121.856)">
              <tspan
                 id="tspan3816"
                 y="0"
                 x="0">1</tspan>
              <tspan
                 id="tspan3818"
                 y="110.548"
                 x="184.246">2</tspan>
              <tspan
                 id="tspan3820"
                 y="-11.338"
                 x="328.80801">3</tspan>
              <tspan
                 id="tspan3822"
                 y="-195.584"
                 x="206.922">5</tspan>
              <tspan
                 id="tspan3824"
                 sodipodi:role="line"
                 y="-331.642"
                 x="14.173 359.9877">46</tspan>
              <tspan
                 id="tspan3826"
                 sodipodi:role="line"
                 y="-277.78571"
                 x="178.577 191.89653">f2</tspan>
              <tspan
                 id="tspan3828"
                 sodipodi:role="line"
                 y="-130.3887"
                 x="246.60629 259.92584">f4</tspan>
              <tspan
                 id="tspan3830"
                 sodipodi:role="line"
                 y="19.8423"
                 x="141.72729 155.04683">f1</tspan>
              <tspan
                 id="tspan3832"
                 sodipodi:role="line"
                 y="-121.8857"
                 x="82.201897 95.521431">f3</tspan>
              <tspan
                 id="tspan3834"
                 sodipodi:role="line"
                 y="-133.224"
                 x="153.0656 166.38513">f5</tspan>
            </text>
          </g>
        </g>
      </g>
      <g
         transform="matrix(0.45,0,0,0.45,530.96884,-248.26929)"
         inkscape:label="ink_ext_XXXXXX"
         id="g3920">
        <g
           transform="scale(0.1,0.1)"
           id="g3922">
          <g
             id="g3924">
            <g
               clip-path="url(#clipPath3928)"
               id="g3926">
              <path
                 inkscape:connector-curvature="0"
                 id="path3932"
                 style="fill:none;stroke:#000000;stroke-width:28.34550095;stroke-linecap:butt;stroke-linejoin:miter;stroke-miterlimit:10;stroke-dasharray:none;stroke-opacity:1"
                 d="m 3393.25,2999.52 1247.2,453.53" />
            </g>
          </g>
          <path
             inkscape:connector-curvature="0"
             id="path3934"
             style="fill:#ffffff;fill-opacity:1;fill-rule:evenodd;stroke:none"
             d="m 4324.24,3258.41 258.89,173.85 -310.54,-32.12 51.65,-141.73" />
          <path
             inkscape:connector-curvature="0"
             id="path3936"
             style="fill:none;stroke:#000000;stroke-width:28.34550095;stroke-linecap:butt;stroke-linejoin:miter;stroke-miterlimit:10;stroke-dasharray:none;stroke-opacity:1"
             d="m 4324.24,3258.41 258.89,173.85 -310.54,-32.12 51.65,-141.73 z" />
          <g
             id="g3938">
            <g
               clip-path="url(#clipPath3942)"
               id="g3940">
              <path
                 inkscape:connector-curvature="0"
                 id="path3946"
                 style="fill:none;stroke:#000000;stroke-width:28.34550095;stroke-linecap:butt;stroke-linejoin:miter;stroke-miterlimit:10;stroke-dasharray:none;stroke-opacity:1"
                 d="M 1251.59,2644.25 202.801,2984.4" />
            </g>
          </g>
          <path
             inkscape:connector-curvature="0"
             id="path3948"
             style="fill:#ffffff;fill-opacity:1;fill-rule:evenodd;stroke:none"
             d="m 571.293,2944.72 -310.543,20.78 263.93,-165.03 46.613,144.25" />
          <path
             inkscape:connector-curvature="0"
             id="path3950"
             style="fill:none;stroke:#000000;stroke-width:28.34550095;stroke-linecap:butt;stroke-linejoin:miter;stroke-miterlimit:10;stroke-dasharray:none;stroke-opacity:1"
             d="m 571.293,2944.72 -310.543,20.78 263.93,-165.03 46.613,144.25 z" />
          <g
             id="g3952">
            <g
               clip-path="url(#clipPath3956)"
               id="g3954">
              <path
                 inkscape:connector-curvature="0"
                 id="path3960"
                 style="fill:none;stroke:#000000;stroke-width:28.34550095;stroke-linecap:butt;stroke-linejoin:miter;stroke-miterlimit:10;stroke-dasharray:none;stroke-opacity:1"
                 d="M 2037.07,1161.47 1753.61,27.6523" />
            </g>
          </g>
          <path
             inkscape:connector-curvature="0"
             id="path3962"
             style="fill:#ffffff;fill-opacity:1;fill-rule:evenodd;stroke:none"
             d="m 1768.73,398.66 0,-311.8006 146.14,275.2696 -146.14,36.531" />
          <path
             inkscape:connector-curvature="0"
             id="path3964"
             style="fill:none;stroke:#000000;stroke-width:28.34550095;stroke-linecap:butt;stroke-linejoin:miter;stroke-miterlimit:10;stroke-dasharray:none;stroke-opacity:1"
             d="m 1768.73,398.66 0,-311.8006 146.14,275.2696 -146.14,36.531 z" />
          <path
             inkscape:connector-curvature="0"
             id="path3966"
             style="fill:none;stroke:#000000;stroke-width:18.89699936;stroke-linecap:butt;stroke-linejoin:miter;stroke-miterlimit:10;stroke-dasharray:none;stroke-opacity:1"
             d="M 151.148,1328.39 2248.71,449.684 4261.25,1186.67 2163.68,2150.41 151.148,1328.39 Z" />
          <path
             inkscape:connector-curvature="0"
             id="path3968"
             style="fill:none;stroke:#000000;stroke-width:18.89699936;stroke-linecap:butt;stroke-linejoin:miter;stroke-miterlimit:10;stroke-dasharray:none;stroke-opacity:1"
             d="M 527.199,3302.5 2624.77,2423.79 4637.3,3160.77 2539.73,4124.52 527.199,3302.5 Z" />
          <path
             inkscape:connector-curvature="0"
             id="path3970"
             style="fill:none;stroke:#000000;stroke-width:18.89699936;stroke-linecap:butt;stroke-linejoin:miter;stroke-miterlimit:10;stroke-dasharray:none;stroke-opacity:1"
             d="M 547.984,3312.58 122.805,1328.39" />
          <path
             inkscape:connector-curvature="0"
             id="path3972"
             style="fill:none;stroke:#000000;stroke-width:18.89699936;stroke-linecap:butt;stroke-linejoin:miter;stroke-miterlimit:10;stroke-dasharray:none;stroke-opacity:1"
             d="M 2617.21,2405.52 2248.71,449.684" />
          <path
             inkscape:connector-curvature="0"
             id="path3974"
             style="fill:none;stroke:#000000;stroke-width:18.89699936;stroke-linecap:butt;stroke-linejoin:miter;stroke-miterlimit:10;stroke-dasharray:none;stroke-opacity:1"
             d="m 2163.68,2122.07 368.49,1984.18" />
          <path
             inkscape:connector-curvature="0"
             id="path3976"
             style="fill:none;stroke:#000000;stroke-width:18.89699936;stroke-linecap:butt;stroke-linejoin:miter;stroke-miterlimit:10;stroke-dasharray:none;stroke-opacity:1"
             d="M 4629.74,3142.51 4289.59,1186.67" />
          <g
             id="g3978">
            <g
               clip-path="url(#clipPath3982)"
               id="g3980">
              <path
                 inkscape:connector-curvature="0"
                 id="path3986"
                 style="fill:none;stroke:#000000;stroke-width:28.34550095;stroke-linecap:butt;stroke-linejoin:miter;stroke-miterlimit:10;stroke-dasharray:none;stroke-opacity:1"
                 d="m 2739.41,3622.49 198.42,878.71" />
            </g>
          </g>
          <path
             inkscape:connector-curvature="0"
             id="path3988"
             style="fill:#ffffff;fill-opacity:1;fill-rule:evenodd;stroke:none"
             d="m 2931.53,4130.19 -6.93,311.17 -140.47,-277.79 147.4,-33.38" />
          <path
             inkscape:connector-curvature="0"
             id="path3990"
             style="fill:none;stroke:#000000;stroke-width:28.34550095;stroke-linecap:butt;stroke-linejoin:miter;stroke-miterlimit:10;stroke-dasharray:none;stroke-opacity:1"
             d="m 2931.53,4130.19 -6.93,311.17 -140.47,-277.79 147.4,-33.38 z" />
          <g
             id="g3992">
            <g
               clip-path="url(#clipPath3996)"
               id="g3994">
              <path
                 inkscape:connector-curvature="0"
                 id="path4000"
                 style="fill:none;stroke:#000000;stroke-width:28.34550095;stroke-linecap:butt;stroke-linejoin:miter;stroke-miterlimit:10;stroke-dasharray:none;stroke-opacity:1"
                 d="M 1425.44,1616.26 263.27,1077.7" />
            </g>
          </g>
          <path
             inkscape:connector-curvature="0"
             id="path4002"
             style="fill:#ffffff;fill-opacity:1;fill-rule:evenodd;stroke:none"
             d="m 561.215,1299.42 -242.512,-195.9 305.5,58.58 -62.988,137.32" />
          <path
             inkscape:connector-curvature="0"
             id="path4004"
             style="fill:none;stroke:#000000;stroke-width:28.34550095;stroke-linecap:butt;stroke-linejoin:miter;stroke-miterlimit:10;stroke-dasharray:none;stroke-opacity:1"
             d="m 561.215,1299.42 -242.512,-195.9 305.5,58.58 -62.988,137.32 z" />
          <g
             id="g4006">
            <g
               clip-path="url(#clipPath4010)"
               id="g4008">
              <path
                 inkscape:connector-curvature="0"
                 id="path4014"
                 style="fill:none;stroke:#000000;stroke-width:28.34550095;stroke-linecap:butt;stroke-linejoin:miter;stroke-miterlimit:10;stroke-dasharray:none;stroke-opacity:1"
                 d="m 3675.44,1890.89 878.71,-340.14" />
            </g>
          </g>
          <path
             inkscape:connector-curvature="0"
             id="path4016"
             style="fill:#ffffff;fill-opacity:1;fill-rule:evenodd;stroke:none"
             d="m 4187.55,1611.85 309.28,-39.05 -255.11,180.15 -54.17,-141.1" />
          <path
             inkscape:connector-curvature="0"
             id="path4018"
             style="fill:none;stroke:#000000;stroke-width:28.34550095;stroke-linecap:butt;stroke-linejoin:miter;stroke-miterlimit:10;stroke-dasharray:none;stroke-opacity:1"
             d="m 4187.55,1611.85 309.28,-39.05 -255.11,180.15 -54.17,-141.1 z" />
          <g
             transform="scale(10,10)"
             id="g4020">
            <text
               id="text4022"
               style="font-variant:normal;font-weight:normal;font-size:39.99860001px;font-family:Times;-inkscape-font-specification:Times-Roman;writing-mode:lr-tb;fill:#000000;fill-opacity:1;fill-rule:nonzero;stroke:none"
               transform="matrix(1,0,0,-1,0.942188,101.659)">
              <tspan
                 id="tspan4024"
                 y="0"
                 x="0">1</tspan>
              <tspan
                 id="tspan4026"
                 y="-79.367203"
                 x="201.25301">4</tspan>
              <tspan
                 id="tspan4028"
                 y="85.036797"
                 x="223.9292">2</tspan>
              <tspan
                 id="tspan4030"
                 y="5.6691999"
                 x="430.8512">3</tspan>
              <tspan
                 id="tspan4032"
                 y="-198.41879"
                 x="459.1969">7</tspan>
              <tspan
                 id="tspan4034"
                 y="-308.9668"
                 x="255.1089">8</tspan>
              <tspan
                 id="tspan4036"
                 y="-147.3968"
                 x="255.1089">6</tspan>
              <tspan
                 id="tspan4038"
                 y="-232.4335"
                 x="42.517899">5</tspan>
              <tspan
                 id="tspan4040"
                 sodipodi:role="line"
                 y="-141.7276"
                 x="130.3886 143.70813">f5</tspan>
              <tspan
                 id="tspan4042"
                 sodipodi:role="line"
                 y="-79.367401"
                 x="328.80759 342.12714">f3</tspan>
              <tspan
                 id="tspan4044"
                 sodipodi:role="line"
                 y="-53.856499"
                 x="144.5616 157.88113">f2</tspan>
              <tspan
                 id="tspan4046"
                 sodipodi:role="line"
                 y="-22.676399"
                 x="195.5835 208.90303">f1</tspan>
              <tspan
                 id="tspan4048"
                 sodipodi:role="line"
                 y="-175.7424"
                 x="300.46149 313.78104">f4</tspan>
              <tspan
                 id="tspan4050"
                 sodipodi:role="line"
                 y="-226.7643"
                 x="249.43961 262.75912">f6</tspan>
            </text>
          </g>
        </g>
      </g>
    </g>
  </g>
</svg>
